<svg width="43" height="43" viewBox="0 0 43 43" fill="none" xmlns="http://www.w3.org/2000/svg">
<circle cx="21.0171" cy="21.0171" r="21.0171" fill="#F0F8FF"/>
<path d="M32.8393 15.9006L32.3205 15.7277C31.9243 15.5956 31.7366 15.2336 31.7826 14.8185V14.8185C31.7901 14.7513 31.7957 14.6845 31.8094 14.6182C32.6977 10.329 32.0359 6.82785 30.0808 5.65476C28.1104 4.6039 24.9579 5.65476 21.8053 8.41326C21.6951 8.5234 21.5619 8.63355 21.4249 8.74369C21.0957 9.00851 20.6882 8.99999 20.3479 8.74939V8.74939C20.2745 8.69529 20.1945 8.64411 20.1268 8.58293C17.0056 5.76085 13.7712 4.61667 11.8221 5.78612C9.85179 6.83697 9.32636 10.2523 10.1145 14.3243V14.3243C10.3213 14.9448 9.83567 15.6445 9.21491 15.8503C9.1643 15.8671 9.11398 15.8838 9.06365 15.9006C5.12294 17.2142 2.62715 19.4473 2.62715 21.549C2.62715 23.7721 5.23096 26.1254 9.27208 27.4424C9.30796 27.4541 9.33422 27.4643 9.36831 27.4805V27.4805C9.82857 27.6989 10.2003 28.2229 10.136 28.7283C10.1264 28.8045 10.1196 28.8787 10.1165 28.9495C10.1139 29.0073 10.1088 29.0655 10.0981 29.1223C9.33568 33.1527 9.99611 36.2693 11.8221 37.4432C13.7925 38.6254 17.0764 37.4432 20.3604 34.5533V34.5533C20.7954 34.1183 21.4254 34.2095 21.9035 34.5966C22.0007 34.6753 22.1 34.7498 22.1994 34.816C25.3519 37.5745 28.3731 38.6254 30.3435 37.4432C32.2976 36.2707 32.9597 32.902 32.2017 28.7463C32.1892 28.6774 32.1839 28.6069 32.1765 28.5373C32.1639 28.4169 32.1319 28.2774 32.0897 28.1275C32.0022 27.8169 32.1871 27.5374 32.4774 27.3966V27.3966C32.5662 27.3536 32.6258 27.3119 32.7189 27.2793C36.8422 25.8331 39.5385 23.6254 39.5385 21.4176C39.4071 19.4473 36.78 17.3455 32.8393 15.9006ZM22.9875 9.72683C25.746 7.3624 28.2418 6.4429 29.424 7.09969C30.6001 7.7531 31.1262 10.6167 30.3555 14.3971C30.3476 14.4358 30.3441 14.4747 30.3414 14.514V14.514C30.3157 14.8899 29.858 15.1553 29.49 15.0743C28.5622 14.8701 27.604 14.7095 26.6656 14.5925C25.8351 14.4889 25.0791 14.0556 24.5752 13.3874C24.0635 12.709 23.5168 12.0306 22.9351 11.3522C22.5284 10.8779 22.5457 10.1687 22.9875 9.72683V9.72683ZM12.7052 25.5944C13.0071 24.7042 14.097 24.6836 14.5806 25.4897V25.4897V25.4897C15.0071 26.2004 14.4125 27.1782 13.5947 27.0435C13.5268 27.0324 13.4589 27.0209 13.3907 27.0091C12.8166 26.9096 12.462 26.3359 12.6428 25.782C12.6631 25.7196 12.6839 25.6571 12.7052 25.5944ZM14.4493 18.0023C14.0928 18.7152 13.0288 18.6852 12.7758 17.9294C12.7563 17.8711 12.7368 17.8128 12.7174 17.7545C12.5273 17.1842 12.8596 16.5624 13.4523 16.4616C13.4676 16.459 13.4829 16.4564 13.4982 16.4538C14.3602 16.3092 14.9181 17.2254 14.4665 17.9737C14.4608 17.9832 14.455 17.9928 14.4493 18.0023V18.0023ZM15.9916 24.6471C14.8568 22.8266 14.9348 20.5779 15.8942 18.6591V18.6591V18.6591C16.9758 16.7664 18.9686 15.6379 21.1485 15.6379V15.6379C21.1684 15.6379 21.1883 15.6379 21.2081 15.6379C23.3465 15.638 25.3151 16.7464 26.2714 18.6591V18.6591V18.6591C27.3358 20.5217 27.2308 22.7828 26.2714 24.7015V24.7015V24.7015C25.223 26.5362 23.3249 27.7227 21.2118 27.7228C21.1907 27.7228 21.1696 27.7228 21.1485 27.7228V27.7228C19.0522 27.7228 17.2051 26.5984 16.0982 24.8181C16.0742 24.7794 16.05 24.7406 16.0256 24.7015C16.0142 24.6834 16.0029 24.6652 15.9916 24.6471ZM27.4536 25.4897V25.4897C27.8993 24.7469 29.0902 24.7595 29.356 25.584C29.3816 25.6634 29.4065 25.7433 29.4308 25.8237C29.5923 26.3591 29.2444 26.9037 28.6935 27.0004C28.6096 27.0151 28.526 27.0293 28.4426 27.0431C27.6451 27.1745 27.0922 26.2126 27.4536 25.4897V25.4897ZM29.3313 17.936C29.0079 18.7901 27.9751 18.7692 27.5173 17.979C27.4964 17.943 27.4752 17.907 27.4536 17.871C27.4301 17.8317 27.4065 17.7929 27.383 17.7545C26.9134 16.9886 27.4784 16.1844 28.3634 16.3392C28.3764 16.3415 28.3894 16.3437 28.4023 16.346C29.1282 16.4726 29.5922 17.2469 29.3313 17.936V17.936ZM20.3341 12.378C20.7025 11.9432 21.3654 11.9135 21.7311 12.3506C21.7885 12.4192 21.8453 12.4883 21.9016 12.5579C22.4043 13.1799 21.8826 14.0992 21.0829 14.0948V14.0948C20.2438 14.0902 19.7366 13.0826 20.2793 12.4426C20.2976 12.421 20.3159 12.3995 20.3341 12.378ZM12.6103 7.09969C13.7925 6.4429 16.551 7.3624 19.4409 9.98954V9.98954C19.731 10.2797 19.7301 10.7494 19.4496 11.0489C18.8533 11.6858 18.2928 12.3584 17.768 13.0667C17.1363 13.9192 16.1892 14.4907 15.1376 14.6318C14.4582 14.723 13.7939 14.8369 13.1353 14.9734C12.4654 15.1123 11.9071 14.7106 11.6908 14.0616V14.0616C10.9026 10.515 11.4281 7.75647 12.6103 7.09969ZM11.0763 25.4999C10.9135 25.9792 10.3046 26.3729 9.85179 26.1465V26.1465C8.01279 25.4897 6.56786 24.7015 5.51701 23.9134C4.59751 23.1253 4.20344 22.3371 4.20344 21.6803C4.20344 20.3668 6.17379 18.6591 9.58908 17.4769V17.4769C10.3078 17.2373 11.0466 17.6804 11.2677 18.405C11.4583 19.0293 11.6756 19.6477 11.9279 20.2519C12.3102 21.1675 12.3347 22.2052 11.9553 23.1219C11.6272 23.9146 11.3454 24.7072 11.0763 25.4999ZM19.3095 33.6338C17.8646 34.9474 16.4196 35.7355 15.2374 36.261C14.0552 36.655 13.2671 36.655 12.6103 36.3923C11.4281 35.7355 10.9026 33.1084 11.5594 29.6931V29.6931C11.7409 28.9671 12.5256 28.4255 13.2614 28.5617C13.9469 28.6887 14.6485 28.7859 15.3567 28.844C16.2678 28.9187 17.1205 29.3551 17.6736 30.0831C18.1781 30.747 18.7161 31.411 19.2877 32.0749C19.6633 32.5112 19.7166 33.2268 19.3095 33.6338V33.6338ZM21.7629 31.0047C21.3647 31.4537 20.6925 31.4716 20.3032 31.0149V31.0149C19.7008 30.3085 20.2184 29.1677 21.1468 29.1677H21.2023C22.0563 29.1677 22.5566 30.0722 22.0055 30.7245C21.9258 30.8188 21.8449 30.9123 21.7629 31.0047ZM30.6062 34.0279C30.3435 35.2101 29.9494 35.9982 29.424 36.261C28.2418 36.9177 25.746 35.9982 23.1189 33.7652V33.7652C22.6377 33.2841 22.5545 32.5817 22.9907 32.0595C23.4182 31.5476 23.8402 31.0135 24.2476 30.4574C24.8884 29.5826 25.8587 29 26.9334 28.8559C27.757 28.7455 28.5701 28.6023 29.4056 28.4264C29.8798 28.3265 30.2711 28.5926 30.427 29.0513V29.0513C30.4555 29.1351 30.4844 29.2115 30.5022 29.2981C30.8688 31.0874 30.8627 32.7454 30.6062 34.0279ZM32.0349 26.1091C31.9592 26.1339 31.8686 26.144 31.7901 26.1575V26.1575C31.4646 26.2135 31.1933 26.0663 31.084 25.7547C30.7546 24.8156 30.3837 23.8765 29.9992 22.9374C29.636 22.0504 29.6545 21.0556 30.0298 20.1737C30.3301 19.4681 30.6216 18.7428 30.8909 18.0111C31.1052 17.429 31.759 17.0681 32.3139 17.3455V17.3455C35.7291 18.5278 37.8309 20.2354 37.8309 21.549C37.8309 23.1087 35.6443 24.9257 32.0349 26.1091Z" fill="url(#paint0_linear_1_24)"/>
<path d="M21.0171 24.9642C21.6739 24.9642 22.3307 24.8329 22.8561 24.4388C23.3816 24.0447 23.7756 23.5193 24.0383 22.9939C24.3011 22.3371 24.3011 21.6803 24.1697 21.0235C24.0835 20.5925 23.9407 20.218 23.7042 19.8629C23.4413 19.4684 23.1263 19.094 22.7265 18.8392C22.3767 18.6162 21.9596 18.4798 21.5426 18.3964C21.1879 18.3255 20.8332 18.3311 20.4785 18.3721C19.8706 18.4422 19.2575 18.6018 18.7681 18.9691C18.7453 18.9862 18.7229 19.0036 18.7009 19.0212C18.2318 19.3969 17.8996 19.9399 17.734 20.5177C17.6392 20.8481 17.6019 21.1986 17.6019 21.549C17.6019 21.943 17.7332 22.4685 17.8646 22.8625C17.9959 23.2566 18.2586 23.6507 18.5214 23.9134C18.638 24.0301 18.7806 24.1467 18.9376 24.2519C19.3315 24.5158 19.7787 24.6975 20.2326 24.8341C20.5209 24.9209 20.7907 24.9642 21.0171 24.9642Z" fill="url(#paint1_linear_1_24)"/>
<defs>
<linearGradient id="paint0_linear_1_24" x1="2.62715" y1="5.07043" x2="40.4773" y2="6.18349" gradientUnits="userSpaceOnUse">
<stop stop-color="#007AF4"/>
<stop offset="0.9998" stop-color="#34B5FE"/>
<stop offset="0.9999" stop-color="#2196F3" stop-opacity="0.86"/>
</linearGradient>
<linearGradient id="paint1_linear_1_24" x1="17.6019" y1="18.3047" x2="24.4265" y2="18.4832" gradientUnits="userSpaceOnUse">
<stop stop-color="#007AF4"/>
<stop offset="0.9998" stop-color="#34B5FE"/>
<stop offset="0.9999" stop-color="#2196F3" stop-opacity="0.86"/>
</linearGradient>
</defs>
</svg>
