<svg width="225" height="225" viewBox="0 0 225 225" fill="none" xmlns="http://www.w3.org/2000/svg">
<path d="M112.5 93.75C133.211 93.75 150 76.9607 150 56.25C150 35.5393 133.211 18.75 112.5 18.75C91.7893 18.75 75 35.5393 75 56.25C75 76.9607 91.7893 93.75 112.5 93.75Z" stroke="#E6EEF5" stroke-width="4"/>
<path d="M187.481 168.75C187.5 167.212 187.5 165.647 187.5 164.062C187.5 140.766 153.919 121.875 112.5 121.875C71.0812 121.875 37.5 140.766 37.5 164.062C37.5 187.359 37.5 206.25 112.5 206.25C133.416 206.25 148.5 204.778 159.375 202.153" stroke="#E6EEF5" stroke-width="4" stroke-linecap="round"/>
</svg>
